<svg width="41" height="41" viewBox="0 0 41 41" fill="none" xmlns="http://www.w3.org/2000/svg">
<path d="M20.0285 12.7218C18.997 12.7218 18.0079 13.1315 17.2785 13.8609C16.5492 14.5902 16.1395 15.5794 16.1395 16.6108C16.1395 17.6423 16.5492 18.6314 17.2785 19.3608C18.0079 20.0901 18.997 20.4998 20.0285 20.4998C21.0599 20.4998 22.0491 20.0901 22.7784 19.3608C23.5078 18.6314 23.9175 17.6423 23.9175 16.6108C23.9175 15.5794 23.5078 14.5902 22.7784 13.8609C22.0491 13.1315 21.0599 12.7218 20.0285 12.7218ZM6.83331 7.68734C6.83331 6.55464 7.28327 5.46834 8.08421 4.6674C8.88515 3.86647 9.97145 3.4165 11.1041 3.4165H30.75C31.3108 3.4165 31.8662 3.52697 32.3844 3.7416C32.9025 3.95623 33.3733 4.27082 33.7699 4.6674C34.1665 5.06399 34.4811 5.5348 34.6957 6.05296C34.9103 6.57112 35.0208 7.12648 35.0208 7.68734V32.0311C35.0208 32.3709 34.8858 32.6968 34.6455 32.9371C34.4053 33.1774 34.0794 33.3123 33.7396 33.3123H9.39581C9.39581 33.7654 9.5758 34.1999 9.89617 34.5203C10.2165 34.8407 10.6511 35.0207 11.1041 35.0207H33.7396C34.0794 35.0207 34.4053 35.1557 34.6455 35.3959C34.8858 35.6362 35.0208 35.9621 35.0208 36.3019C35.0208 36.6417 34.8858 36.9676 34.6455 37.2079C34.4053 37.4482 34.0794 37.5832 33.7396 37.5832H11.1041C9.97145 37.5832 8.88515 37.1332 8.08421 36.3323C7.28327 35.5313 6.83331 34.445 6.83331 33.3123V7.68734ZM25.3158 20.1496C26.1943 18.8368 26.5529 17.244 26.3219 15.6813C26.0909 14.1186 25.2868 12.6978 24.066 11.6952C22.8452 10.6927 21.2951 10.1802 19.7174 10.2574C18.1396 10.3347 16.647 10.9962 15.53 12.1132C14.413 13.2302 13.7515 14.7228 13.6742 16.3006C13.597 17.8783 14.1095 19.4284 15.112 20.6492C16.1146 21.87 17.5354 22.6741 19.0981 22.9051C20.6608 23.1361 22.2536 22.7775 23.5664 21.899L27.7963 26.1271L27.9107 26.2262L27.9244 26.2364C28.1754 26.4185 28.4857 26.4996 28.7937 26.4638C29.1017 26.4279 29.385 26.2776 29.5875 26.0427C29.7899 25.8078 29.8968 25.5054 29.8868 25.1955C29.8768 24.8855 29.7508 24.5906 29.5336 24.3692L25.3141 20.1496H25.3158Z" fill="white"/>
</svg>
