<svg width="37" height="33" viewBox="0 0 37 33" fill="none" xmlns="http://www.w3.org/2000/svg">
<path d="M33.5359 16.8659C31.6223 16.8659 30.0718 18.4164 30.0718 20.33C30.0718 20.7729 30.1632 21.1937 30.3146 21.5822L25.5867 25.7088C25.0837 25.4244 24.5114 25.2487 23.8917 25.2487C23.0661 25.2487 22.3192 25.5493 21.7237 26.0303L13.8508 21.0769C13.904 20.8353 13.9363 20.5867 13.9363 20.33C13.9363 18.4164 12.3858 16.8658 10.4722 16.8658C8.55863 16.8658 7.0081 18.4164 7.0081 20.33C7.0081 20.9879 7.20231 21.5972 7.52029 22.121L4.70481 25.488C4.31865 25.3388 3.9035 25.2498 3.46418 25.2498C1.55053 25.2488 0 26.8004 0 28.7129C0 30.6264 1.55053 32.177 3.46411 32.177C5.37769 32.177 6.92821 30.6264 6.92821 28.7129C6.92821 28.085 6.74782 27.5046 6.45642 26.997L9.3135 23.5814C9.67769 23.7109 10.0627 23.7942 10.4721 23.7942C11.2861 23.7942 12.0249 23.5017 12.6157 23.0322L20.5037 27.9948C20.4551 28.2273 20.4273 28.4666 20.4273 28.7129C20.4273 30.6264 21.9778 32.177 23.8914 32.177C25.805 32.177 27.3555 30.6264 27.3555 28.7129C27.3555 28.2654 27.2642 27.841 27.1092 27.4479L31.8302 23.3282C32.3355 23.6162 32.9124 23.7942 33.5357 23.7942C35.4492 23.7942 36.9998 22.2437 36.9998 20.3301C37 18.4177 35.4495 16.8659 33.5359 16.8659Z" fill="white"/>
<path d="M33.5359 0.822998C31.6223 0.822998 30.0718 2.37352 30.0718 4.2871C30.0718 4.72997 30.1632 5.15079 30.3146 5.53929L25.5867 9.66592C25.0837 9.38148 24.5114 9.20576 23.8917 9.20576C23.0661 9.20576 22.3192 9.50637 21.7237 9.98737L13.8507 5.03405C13.9039 4.79242 13.9362 4.54376 13.9362 4.2871C13.9362 2.37352 12.3857 0.822998 10.4721 0.822998C8.55855 0.822998 7.00803 2.37345 7.00803 4.2871C7.00803 4.94502 7.20224 5.55439 7.52021 6.07813L4.70474 9.44513C4.31858 9.296 3.90229 9.20576 3.46411 9.20576C1.55053 9.20576 0 10.7574 0 12.6711C0 14.5847 1.55053 16.1352 3.46411 16.1352C5.37769 16.1352 6.92821 14.5847 6.92821 12.6711C6.92821 12.0432 6.74782 11.4628 6.45642 10.9552L9.3135 7.53963C9.67769 7.668 10.0639 7.75234 10.4721 7.75234C11.2861 7.75234 12.0249 7.45982 12.6157 6.99037L20.5037 11.953C20.4551 12.1854 20.4273 12.4247 20.4273 12.671C20.4273 14.5846 21.9778 16.1351 23.8914 16.1351C25.805 16.1351 27.3555 14.5846 27.3555 12.671C27.3555 12.2235 27.2642 11.7992 27.1092 11.4061L31.8302 7.28629C32.3355 7.57421 32.9124 7.75227 33.5357 7.75227C35.4492 7.75227 36.9998 6.20061 36.9998 4.28816C37 2.37466 35.4495 0.822998 33.5359 0.822998Z" fill="white"/>
</svg>
