<svg width="43" height="43" viewBox="0 0 43 43" fill="none" xmlns="http://www.w3.org/2000/svg">
<path d="M9.67499 4.2998C8.24945 4.2998 6.8823 4.8661 5.87429 5.87411C4.86628 6.88211 4.29999 8.24927 4.29999 9.6748V10.7498H30.1V9.6748C30.1 8.24927 29.5337 6.88211 28.5257 5.87411C27.5177 4.8661 26.1505 4.2998 24.725 4.2998H9.67499ZM30.1 12.8998H4.29999V24.7248C4.29999 26.1503 4.86628 27.5175 5.87429 28.5255C6.8823 29.5335 8.24945 30.0998 9.67499 30.0998H10.75V23.6498C10.75 21.9392 11.4295 20.2986 12.6391 19.089C13.8488 17.8794 15.4893 17.1998 17.2 17.1998H30.1V12.8998ZM13.0505 22.5211C13.2982 21.6103 13.8387 20.8064 14.5886 20.2333C15.3385 19.6602 16.2562 19.3497 17.2 19.3498H34.4C35.3438 19.3497 36.2614 19.6602 37.0113 20.2333C37.7612 20.8064 38.3017 21.6103 38.5495 22.5211L25.8 30.016L13.0505 22.5211ZM26.617 32.0305L38.7 24.9269V34.3998C38.7 35.5402 38.247 36.634 37.4405 37.4404C36.6341 38.2468 35.5404 38.6998 34.4 38.6998H17.2C16.0596 38.6998 14.9658 38.2468 14.1594 37.4404C13.353 36.634 12.9 35.5402 12.9 34.3998V24.9291L24.983 32.0305C25.2307 32.1761 25.5127 32.2528 25.8 32.2528C26.0873 32.2528 26.3693 32.1761 26.617 32.0305Z" fill="white"/>
</svg>
