<svg width="40" height="40" viewBox="0 0 40 40" fill="none" xmlns="http://www.w3.org/2000/svg">
<g clip-path="url(#clip0_23_835)">
<path d="M35.1825 30.3775C34.9475 31.9925 31.6538 36.1849 30.1375 36.7899C29.6163 36.9912 29.1213 36.9462 28.7188 36.6399C28.465 36.4387 28.1975 36.0275 24.6438 30.26L23.5888 28.5412C23.1788 27.9225 23.2563 27.1087 23.765 26.49C24.26 25.8912 24.9825 25.67 25.6138 25.91C25.6463 25.93 28.2763 26.7887 28.2763 26.7887C34.2525 28.7549 34.4488 28.8324 34.7025 29.0212C35.08 29.3337 35.2563 29.8149 35.1775 30.375L35.1825 30.3775ZM23.2038 21.6012C22.7738 20.9562 22.7875 20.195 23.2238 19.6737L24.8838 17.4074C28.53 12.4337 28.7375 12.1725 28.985 11.9974C29.4088 11.7112 29.935 11.6974 30.4363 11.945C31.8813 12.6487 34.805 16.99 34.98 18.6574V18.7162C35.0325 19.2824 34.8038 19.745 34.4075 20.025C34.1338 20.2012 33.88 20.2987 27.0838 21.9524C26.01 22.2262 25.41 22.3762 25.0588 22.5L25.1038 22.4475C24.4338 22.6487 23.685 22.3237 23.255 21.6537L23.2038 21.6012ZM19.0238 19.0237C18.705 19.1212 17.715 19.4275 16.4975 17.4612C16.4975 17.4612 8.27501 4.52495 8.08626 4.12745C7.96876 3.6787 8.10626 3.16995 8.51001 2.75995C9.73376 1.48995 16.3675 -0.365049 18.1063 0.0587008C18.6725 0.208701 19.0638 0.559951 19.2 1.06745C19.3038 1.62745 20.1113 13.6262 20.2288 16.315C20.34 18.6137 19.35 18.9262 19.0238 19.0237ZM20.1113 32.1749C20.0913 38.4637 20.0788 38.6787 19.975 38.9787C19.8063 39.4412 19.4025 39.7599 18.8425 39.8574C17.2413 40.1312 12.235 38.2825 11.1863 37.0449C10.985 36.7712 10.8613 36.4975 10.835 36.2187C10.8079 36.0243 10.8351 35.8261 10.9138 35.6462C11.0375 35.3212 11.2138 35.0662 15.7125 29.7937L17.0338 28.225C17.49 27.645 18.2838 27.4699 19.0325 27.7687C19.7613 28.0424 20.2113 28.6674 20.1588 29.3437V32.1437L20.1113 32.1749ZM6.47126 28.1512C5.98251 28.1387 5.54001 27.8387 5.28001 27.3499C5.09751 26.9924 4.96751 26.4062 4.88251 25.6837C4.65501 23.5162 4.93501 20.2412 5.58626 19.2062C5.88626 18.7312 6.33501 18.4774 6.82376 18.4962C7.14876 18.4962 7.44251 18.5937 13.875 21.2437L15.7563 21.9925C16.4338 22.2462 16.85 22.9425 16.8113 23.7437C16.7588 24.5187 16.31 25.1175 15.6525 25.2937L12.9763 26.1462C6.99376 28.0737 6.79126 28.1187 6.47876 28.0925L6.47126 28.1512ZM31.4325 39.9937H31.4263L31.42 40L31.4325 39.9937Z" fill="white"/>
</g>
<defs>
<clipPath id="clip0_23_835">
<rect width="40" height="40" fill="white"/>
</clipPath>
</defs>
</svg>
