<svg width="47" height="47" viewBox="0 0 47 47" fill="none" xmlns="http://www.w3.org/2000/svg">
<path d="M8.22501 9.3999C7.29012 9.3999 6.39353 9.77128 5.73246 10.4324C5.0714 11.0934 4.70001 11.99 4.70001 12.9249V34.0749C4.70001 35.0098 5.0714 35.9064 5.73246 36.5675C6.39353 37.2285 7.29012 37.5999 8.22501 37.5999H38.775C39.7099 37.5999 40.6065 37.2285 41.2676 36.5675C41.9286 35.9064 42.3 35.0098 42.3 34.0749V12.9249C42.3 11.99 41.9286 11.0934 41.2676 10.4324C40.6065 9.77128 39.7099 9.3999 38.775 9.3999H8.22501ZM15.275 23.4999C14.3401 23.4999 13.4435 23.1285 12.7825 22.4675C12.1214 21.8064 11.75 20.9098 11.75 19.9749C11.75 19.04 12.1214 18.1434 12.7825 17.4824C13.4435 16.8213 14.3401 16.4499 15.275 16.4499C16.2099 16.4499 17.1065 16.8213 17.7676 17.4824C18.4286 18.1434 18.8 19.04 18.8 19.9749C18.8 20.9098 18.4286 21.8064 17.7676 22.4675C17.1065 23.1285 16.2099 23.4999 15.275 23.4999ZM11.6302 25.2624H18.9175C19.5088 25.263 20.0757 25.4982 20.4938 25.9163C20.9119 26.3344 21.147 26.9013 21.1477 27.4926C21.1477 29.483 19.7917 31.2173 17.86 31.7014L17.7214 31.7367C16.114 32.1362 14.4314 32.1362 12.824 31.7367L12.683 31.7014C11.7449 31.4662 10.9123 30.9242 10.3175 30.1617C9.72272 29.3991 9.39978 28.4597 9.40001 27.4926C9.40063 26.9013 9.6358 26.3344 10.0539 25.9163C10.472 25.4982 11.0389 25.263 11.6302 25.2624ZM25.85 19.9749C25.85 19.6633 25.9738 19.3644 26.1942 19.1441C26.4145 18.9237 26.7134 18.7999 27.025 18.7999H34.075C34.3866 18.7999 34.6855 18.9237 34.9059 19.1441C35.1262 19.3644 35.25 19.6633 35.25 19.9749C35.25 20.2865 35.1262 20.5854 34.9059 20.8058C34.6855 21.0261 34.3866 21.1499 34.075 21.1499H27.025C26.7134 21.1499 26.4145 21.0261 26.1942 20.8058C25.9738 20.5854 25.85 20.2865 25.85 19.9749ZM27.025 25.8499H34.075C34.3866 25.8499 34.6855 25.9737 34.9059 26.1941C35.1262 26.4144 35.25 26.7133 35.25 27.0249C35.25 27.3365 35.1262 27.6354 34.9059 27.8558C34.6855 28.0761 34.3866 28.1999 34.075 28.1999H27.025C26.7134 28.1999 26.4145 28.0761 26.1942 27.8558C25.9738 27.6354 25.85 27.3365 25.85 27.0249C25.85 26.7133 25.9738 26.4144 26.1942 26.1941C26.4145 25.9737 26.7134 25.8499 27.025 25.8499Z" fill="white"/>
</svg>
