<svg width="36" height="36" viewBox="0 0 36 36" fill="none" xmlns="http://www.w3.org/2000/svg">
<path d="M31.0725 6.75H22.113C20.9196 6.74975 19.7752 6.27547 18.9315 5.4315L17.0685 3.5685C16.2248 2.72453 15.0804 2.25025 13.887 2.25H5.625C4.43153 2.25 3.28693 2.72411 2.44302 3.56802C1.59911 4.41193 1.125 5.55653 1.125 6.75L1.215 8.7075C0.621374 9.57048 0.349082 10.6143 0.4455 11.6573L1.87875 27.4072C1.98035 28.5253 2.49621 29.565 3.32504 30.3222C4.15388 31.0795 5.23584 31.4996 6.3585 31.5H29.6415C30.7642 31.4996 31.8461 31.0795 32.675 30.3222C33.5038 29.565 34.0196 28.5253 34.1213 27.4072L35.5545 11.6573C35.6111 11.0345 35.5373 10.4068 35.3377 9.81415C35.1382 9.22151 34.8174 8.67697 34.3957 8.21525C33.9739 7.75352 33.4606 7.38476 32.8885 7.13248C32.3163 6.8802 31.6978 6.74994 31.0725 6.75ZM4.9275 6.75C4.3875 6.75 3.87 6.8445 3.39075 7.02L3.375 6.705C3.38678 6.1161 3.62902 5.55529 4.04971 5.14302C4.4704 4.73075 5.03598 4.49988 5.625 4.5H13.887C14.4837 4.50013 15.0559 4.73726 15.4778 5.15925L17.0685 6.75H4.9275ZM26.5455 18.6097L19.386 23.0422C18.7785 23.4158 18 22.9613 18 22.2053V20.475C18 20.475 12.2153 19.8 9 25.875C10.2848 15.075 16.0717 15.075 18 15.075V13.3448C18 12.5888 18.7785 12.1342 19.386 12.51L26.5455 16.9402C27.153 17.3137 27.153 18.2362 26.5455 18.6097Z" fill="white"/>
</svg>
