<svg width="41" height="33" viewBox="0 0 41 33" fill="none" xmlns="http://www.w3.org/2000/svg">
<path d="M18.3411 9.99668C18.4115 10.435 18.45 10.8861 18.45 11.2857C18.45 11.8014 18.4115 12.2525 18.3411 12.6908L19.7633 13.967C20.2117 14.373 20.3975 14.9596 20.1604 15.5783C20.0131 15.8619 19.8529 16.2551 19.6736 16.5773L19.475 16.9254C19.2251 17.2477 19.0714 17.557 18.8472 17.86C18.482 18.3498 17.8414 18.5109 17.2648 18.3176L15.4519 17.7182C14.7664 18.2918 13.9848 18.7494 13.1328 19.0717L12.6908 20.9408C12.6203 21.5402 12.159 22.0172 11.5569 22.0945C11.1276 22.1461 10.692 22.1719 10.25 22.1719C9.80795 22.1719 9.37232 22.1461 8.9431 22.0945C8.34092 22.0172 7.82201 21.5402 7.75154 20.9408L7.30951 19.0717C6.51513 18.7494 5.73357 18.2918 5.0449 17.7182L3.23706 18.3176C2.66113 18.5109 2.01923 18.3498 1.65407 17.86C1.42729 17.557 1.21588 17.2412 1.02113 16.9189L0.827665 16.5773C0.648931 16.2551 0.48634 15.9199 0.341047 15.5783C0.103759 14.9596 0.285569 14.373 0.737978 13.967L2.15888 12.6908C2.08713 12.2525 1.99232 11.8014 1.99232 11.2857C1.99232 10.8861 2.08713 10.435 2.15888 9.99668L0.737978 8.72051C0.285569 8.25644 0.103759 7.66992 0.341047 7.10918C0.48634 6.70957 0.648931 6.43178 0.827025 6.10758L1.02177 5.7692C1.21588 5.44371 1.42729 5.12918 1.65407 4.82689C2.01923 4.34027 2.66113 4.1785 3.23706 4.36928L5.0449 4.96869C5.73357 4.39893 6.51513 3.94002 7.30951 3.61904L7.75154 1.74539C7.82201 1.14727 8.34092 0.668379 8.9431 0.594967C9.37674 0.54205 9.81316 0.515555 10.25 0.515625C10.692 0.515625 11.1276 0.542567 11.5569 0.594902C12.159 0.668379 12.6203 1.14727 12.6908 1.74539L13.1328 3.61904C13.9848 3.94002 14.7664 4.39893 15.4519 4.96869L17.2648 4.36928C17.8414 4.1785 18.482 4.34027 18.8472 4.82689C19.0714 5.12789 19.2251 5.44113 19.475 5.76469L19.6736 6.11209C19.8529 6.435 20.0131 6.76758 20.1604 7.10918C20.3975 7.66992 20.2117 8.25644 19.7633 8.72051L18.3411 9.99668ZM10.25 8.19199C8.55232 8.19199 7.17498 9.63574 7.17498 11.2857C7.17498 13.0518 8.55232 14.3795 10.25 14.3795C11.9476 14.3795 13.325 13.0518 13.325 11.2857C13.325 9.63574 11.9476 8.19199 10.25 8.19199ZM31.0639 30.8279C30.6283 30.8988 30.1798 30.9375 29.725 30.9375C29.2701 30.9375 28.8217 30.8988 28.3861 30.8279L27.1176 32.2588C26.6564 32.71 26.0734 32.8969 25.5161 32.6584C25.1765 32.5102 24.8434 32.349 24.5231 32.1686L24.1772 31.9687C23.8569 31.7174 23.5494 31.5627 23.2483 31.3371C22.7614 30.9697 22.6012 30.3252 22.7934 29.7451L23.3892 27.9211C22.819 27.2314 22.3642 26.4451 22.0439 25.5879L20.1861 25.1432C19.5903 25.0723 19.1162 24.6082 19.0394 24.0023C18.9881 23.5705 18.9625 23.1322 18.9625 22.6875C18.9625 22.2428 18.9881 21.8045 19.0394 21.3727C19.1162 20.7668 19.5903 20.2447 20.1861 20.1738L22.0439 19.7291C22.3642 18.9299 22.819 18.1436 23.3892 17.4539L22.7934 15.6299C22.6012 15.0498 22.7614 14.4053 23.2483 14.0379C23.5494 13.8123 23.8633 13.5416 24.1836 13.3998L24.5231 13.2064C24.8434 13.026 25.1189 12.8648 25.5161 12.7166C26.0734 12.4781 26.6564 12.665 27.1176 13.1162L28.3861 14.5471C28.8217 14.4762 29.2701 14.4375 29.725 14.4375C30.1798 14.4375 30.6283 14.4762 31.0639 14.5471L32.3323 13.1162C32.7359 12.665 33.3189 12.4781 33.9339 12.7166C34.2734 12.8648 34.6065 13.026 34.9269 13.2064L35.2664 13.3998C35.5867 13.5416 35.9006 13.8123 36.2017 14.0379C36.6886 14.4053 36.8487 15.0498 36.6565 15.6299L36.0608 17.4539C36.6309 18.1436 37.0858 18.9299 37.4061 19.7291L39.2639 20.1738C39.8597 20.2447 40.3337 20.7668 40.4106 21.3727C40.4619 21.8045 40.4875 22.2428 40.4875 22.6875C40.4875 23.1322 40.4619 23.5705 40.4106 24.0023C40.3337 24.6082 39.8597 25.0723 39.2639 25.1432L37.4061 25.5879C37.0858 26.4451 36.6309 27.2314 36.0608 27.9211L36.6565 29.7451C36.8487 30.3252 36.6886 30.9697 36.2017 31.3371C35.9006 31.5627 35.5931 31.7174 35.2728 31.9687L34.9269 32.1686C34.6065 32.349 34.2158 32.5102 33.9339 32.6584C33.3189 32.8969 32.7359 32.71 32.3323 32.2588L31.0639 30.8279ZM32.8 22.6875C32.8 20.9795 31.4226 19.5937 29.725 19.5937C28.0273 19.5937 26.65 20.9795 26.65 22.6875C26.65 24.3955 28.0273 25.7812 29.725 25.7812C31.4226 25.7812 32.8 24.3955 32.8 22.6875Z" fill="white"/>
</svg>
