<svg width="41" height="41" viewBox="0 0 41 41" fill="none" xmlns="http://www.w3.org/2000/svg">
<path d="M38.4375 14.0938C38.4375 15.6081 38.1392 17.1075 37.5597 18.5066C36.9802 19.9056 36.1308 21.1768 35.0601 22.2476C33.9893 23.3183 32.7181 24.1677 31.3191 24.7472C29.92 25.3267 28.4206 25.625 26.9062 25.625C25.3919 25.625 23.8925 25.3267 22.4934 24.7472C21.0944 24.1677 19.8232 23.3183 18.7524 22.2476C17.6816 21.1768 16.8323 19.9056 16.2528 18.5066C15.6733 17.1075 15.375 15.6081 15.375 14.0938C15.375 11.0355 16.5899 8.10245 18.7524 5.93992C20.915 3.7774 23.848 2.5625 26.9062 2.5625C29.9645 2.5625 32.8975 3.7774 35.0601 5.93992C37.2226 8.10245 38.4375 11.0355 38.4375 14.0938ZM32.9384 9.34287C32.8194 9.22356 32.678 9.12889 32.5223 9.0643C32.3667 8.99971 32.1998 8.96646 32.0312 8.96646C31.8627 8.96646 31.6958 8.99971 31.5402 9.0643C31.3845 9.12889 31.2431 9.22356 31.1241 9.34287L24.3438 16.1258L22.6884 14.4679C22.5693 14.3487 22.4278 14.2543 22.2722 14.1898C22.1165 14.1253 21.9497 14.0921 21.7812 14.0921C21.6128 14.0921 21.446 14.1253 21.2903 14.1898C21.1347 14.2543 20.9932 14.3487 20.8741 14.4679C20.755 14.587 20.6605 14.7284 20.596 14.8841C20.5316 15.0397 20.4984 15.2065 20.4984 15.375C20.4984 15.5435 20.5316 15.7103 20.596 15.8659C20.6605 16.0216 20.755 16.163 20.8741 16.2821L23.4366 18.8446C23.5556 18.9639 23.697 19.0586 23.8527 19.1232C24.0083 19.1878 24.1752 19.221 24.3438 19.221C24.5123 19.221 24.6792 19.1878 24.8348 19.1232C24.9905 19.0586 25.1319 18.9639 25.2509 18.8446L32.9384 11.1571C33.0577 11.0381 33.1524 10.8967 33.2169 10.7411C33.2815 10.5854 33.3148 10.4185 33.3148 10.25C33.3148 10.0815 33.2815 9.9146 33.2169 9.75894C33.1524 9.60328 33.0577 9.46189 32.9384 9.34287ZM26.9062 28.1875C29.2125 28.1875 31.3906 27.634 33.3125 26.65V33.3125C33.3125 34.6717 32.7725 35.9753 31.8114 36.9364C30.8503 37.8975 29.5467 38.4375 28.1875 38.4375H7.6875C6.32827 38.4375 5.0247 37.8975 4.06358 36.9364C3.10245 35.9753 2.5625 34.6717 2.5625 33.3125V21.3636L17.3302 29.315C17.5168 29.4155 17.7255 29.4681 17.9375 29.4681C18.1495 29.4681 18.3582 29.4155 18.5448 29.315L22.1605 27.3675C23.6442 27.8979 25.2406 28.1875 26.9062 28.1875ZM7.6875 12.8125H12.8689C12.6318 15.3898 13.1096 17.9826 14.2496 20.3061C15.3897 22.6297 17.148 24.5941 19.3315 25.9838L17.9375 26.7294L2.5625 18.4526V17.9375C2.5625 16.5783 3.10245 15.2747 4.06358 14.3136C5.0247 13.3525 6.32827 12.8125 7.6875 12.8125Z" fill="white"/>
</svg>
