<svg width="39" height="39" viewBox="0 0 39 39" fill="none" xmlns="http://www.w3.org/2000/svg">
<path d="M17.0785 22.7762V11.1219C17.0785 10.5392 16.6062 10.0662 16.0228 10.0662H4.36846C3.78574 10.0662 3.31271 10.5384 3.31271 11.1219V22.7762C3.31271 23.3589 3.78498 23.8319 4.36846 23.8319H16.0228C16.6062 23.8319 17.0785 23.3589 17.0785 22.7762Z" fill="white"/>
<path d="M7.88379 26.2694L12.8403 35.6264H19.6958L14.74 26.2694H7.88379Z" fill="white"/>
<path d="M32.7295 3.70121L19.516 12.6141V21.2855L32.7295 30.1984C33.9894 31.0477 35.6865 30.145 35.6865 28.6262V5.2734C35.6865 3.75453 33.9894 2.8519 32.7295 3.70121Z" fill="white"/>
</svg>
