<svg width="48" height="48" viewBox="0 0 48 48" fill="none" xmlns="http://www.w3.org/2000/svg">
<path d="M16.4838 22.1918L25.9239 31.6318C26.447 32.1549 27.3274 32.2267 27.9283 31.7951C28.0817 31.6849 31.7065 29.0759 33.3974 27.385C38.7751 22.0073 41.5718 14.8469 40.8787 8.23114C40.8521 7.97715 40.7381 7.73811 40.5578 7.55782C40.3774 7.37738 40.1382 7.26338 39.8846 7.23709C33.2688 6.54402 26.1084 9.34078 20.7308 14.7184C19.0399 16.4093 16.4308 20.0339 16.3206 20.1874C15.889 20.7883 15.9608 21.6688 16.4838 22.1918ZM33.7469 14.3689C35.3381 15.9601 35.3381 18.5398 33.7469 20.131C32.1557 21.7222 29.576 21.7222 27.9848 20.131C26.3936 18.5398 26.3936 15.9601 27.9848 14.3689C29.576 12.7777 32.1557 12.7777 33.7469 14.3689Z" fill="white"/>
<path d="M23.8277 38.2554C23.8606 38.1842 24.1519 37.5124 24.2504 35.8616C24.2799 35.3645 24.2913 35.0345 24.2821 34.9319C24.2295 34.344 23.8679 33.5504 23.4527 33.1188L14.9907 24.6569C14.5654 24.2479 13.7717 23.8862 13.1837 23.8335C13.0812 23.8243 12.751 23.8357 12.254 23.8654C10.6034 23.9639 9.93151 24.2551 9.86042 24.288C9.3642 24.5173 8.6728 24.9996 8.28636 25.3861L3.16191 30.5105C2.82841 30.844 2.37829 31.3826 2.20221 31.7066L2.10346 31.8882L2.26719 32.3139C2.31911 32.4489 2.39681 32.5687 2.49824 32.6701L2.71027 32.8821L2.84939 32.9065C3.0731 32.946 3.67694 32.9885 4.13156 33.007L10.2128 33.2533C10.0672 33.4987 9.922 33.7893 9.81439 34.0417L7.43057 39.6263C7.20126 40.1637 7.3878 40.4648 7.51944 40.5965C7.65109 40.7281 7.9522 40.9147 8.48974 40.6853L14.0741 38.3016C14.3264 38.1939 14.617 38.0489 14.8623 37.9033L15.1089 43.9844C15.1273 44.4383 15.1697 45.0416 15.2089 45.2657L15.2332 45.4051L15.4457 45.6176C15.5475 45.7193 15.6676 45.7971 15.8008 45.8481L16.2269 46.013L16.409 45.914C16.7331 45.7377 17.2718 45.2874 17.6053 44.9539L22.7298 39.8295C23.1162 39.443 23.5984 38.7516 23.8277 38.2554Z" fill="white"/>
</svg>
