<svg width="37" height="37" viewBox="0 0 37 37" fill="none" xmlns="http://www.w3.org/2000/svg">
<path d="M33.6714 8.65454L28.3455 3.32857C28.0241 3.00543 27.6419 2.74924 27.2209 2.57484C26.7999 2.40043 26.3485 2.31127 25.8928 2.31251H6.9375C5.71087 2.31251 4.53449 2.79979 3.66713 3.66714C2.79978 4.5345 2.3125 5.71089 2.3125 6.93751V30.0625C2.3125 31.2891 2.79978 32.4655 3.66713 33.3329C4.53449 34.2002 5.71087 34.6875 6.9375 34.6875H30.0625C31.2891 34.6875 32.4655 34.2002 33.3329 33.3329C34.2002 32.4655 34.6875 31.2891 34.6875 30.0625V11.1072C34.6888 10.6515 34.5996 10.2001 34.4252 9.77911C34.2508 9.3581 33.9946 8.97587 33.6714 8.65454ZM8.67188 8.09376H21.3906C21.544 8.09376 21.691 8.15467 21.7994 8.26309C21.9078 8.37151 21.9688 8.51856 21.9688 8.67189V12.1406C21.9688 12.294 21.9078 12.441 21.7994 12.5494C21.691 12.6579 21.544 12.7188 21.3906 12.7188H8.67188C8.51855 12.7188 8.3715 12.6579 8.26308 12.5494C8.15466 12.441 8.09375 12.294 8.09375 12.1406V8.67189C8.09375 8.51856 8.15466 8.37151 8.26308 8.26309C8.3715 8.15467 8.51855 8.09376 8.67188 8.09376ZM18.771 31.2123C17.6057 31.267 16.4512 30.9679 15.4591 30.3543C14.4669 29.7408 13.6836 28.8414 13.212 27.7744C12.7405 26.7075 12.6027 25.5228 12.8169 24.3761C13.031 23.2294 13.587 22.1743 14.4119 21.3494C15.2368 20.5245 16.2919 19.9685 17.4386 19.7544C18.5853 19.5402 19.77 19.678 20.8369 20.1496C21.9039 20.6211 22.8032 21.4044 23.4168 22.3966C24.0304 23.3887 24.3295 24.5433 24.2747 25.7085C24.2063 27.1461 23.6044 28.5066 22.5867 29.5243C21.5691 30.5419 20.2086 31.1438 18.771 31.2123Z" fill="white"/>
<path d="M18.5 28.9062C20.4157 28.9062 21.9688 27.3532 21.9688 25.4375C21.9688 23.5218 20.4157 21.9688 18.5 21.9688C16.5843 21.9688 15.0312 23.5218 15.0312 25.4375C15.0312 27.3532 16.5843 28.9062 18.5 28.9062Z" fill="white"/>
</svg>
