<svg width="34" height="34" viewBox="0 0 34 34" fill="none" xmlns="http://www.w3.org/2000/svg">
<path d="M9.91664 14.3438V19.6562C9.91664 20.5365 9.20311 21.25 8.32289 21.25H1.59375C0.713535 21.25 0 20.5365 0 19.6562V14.3438C0 13.4635 0.713535 12.75 1.59375 12.75H8.32289C9.20311 12.75 9.91664 13.4635 9.91664 14.3438ZM0 24.9688V30.2812C0 31.1615 0.713535 31.875 1.59375 31.875H8.32289C9.20311 31.875 9.91664 31.1615 9.91664 30.2812V24.9688C9.91664 24.0885 9.20311 23.375 8.32289 23.375H1.59375C0.713535 23.375 0 24.0885 0 24.9688ZM8.32289 2.125H1.59375C0.713535 2.125 0 2.83854 0 3.71875V9.03125C0 9.91146 0.713535 10.625 1.59375 10.625H8.32289C9.20311 10.625 9.91664 9.91146 9.91664 9.03125V3.71875C9.91664 2.83854 9.20311 2.125 8.32289 2.125ZM13.6354 31.875H32.4062C33.2865 31.875 34 31.1615 34 30.2812V24.9688C34 24.0885 33.2865 23.375 32.4062 23.375H13.6354C12.7552 23.375 12.0416 24.0885 12.0416 24.9688V30.2812C12.0416 31.1615 12.7552 31.875 13.6354 31.875ZM12.0416 3.71875V9.03125C12.0416 9.91146 12.7552 10.625 13.6354 10.625H32.4062C33.2865 10.625 34 9.91146 34 9.03125V3.71875C34 2.83854 33.2865 2.125 32.4062 2.125H13.6354C12.7552 2.125 12.0416 2.83854 12.0416 3.71875ZM13.6354 21.25H32.4062C33.2865 21.25 34 20.5365 34 19.6562V14.3438C34 13.4635 33.2865 12.75 32.4062 12.75H13.6354C12.7552 12.75 12.0416 13.4635 12.0416 14.3438V19.6562C12.0416 20.5365 12.7552 21.25 13.6354 21.25Z" fill="white"/>
</svg>
