<svg width="39" height="39" viewBox="0 0 39 39" fill="none" xmlns="http://www.w3.org/2000/svg">
<path d="M29.4624 21.6691C29.4624 21.8785 29.4571 22.0866 29.4466 22.2934C29.1323 28.4966 24.1583 33.4705 17.9552 33.785C17.7484 33.7954 17.5402 33.8007 17.3308 33.8007C17.1215 33.8007 16.9133 33.7954 16.7065 33.785C10.5034 33.4706 5.52949 28.4966 5.21502 22.2935C5.20454 22.0867 5.19925 21.8786 5.19925 21.6692C5.19925 15.1785 10.2966 9.87838 16.7065 9.55343C16.9132 9.54294 17.1215 9.53765 17.3308 9.53765C17.5402 9.53765 17.7483 9.54303 17.9552 9.55343C19.6516 9.63947 21.2557 10.0746 22.698 10.7875L26.5149 6.97061C23.8519 5.30321 20.7043 4.33832 17.3308 4.33832C7.75927 4.33832 0 12.0976 0 21.6691C0 31.2407 7.75927 39 17.3308 39C26.9024 39 34.6617 31.2407 34.6617 21.6691C34.6617 18.2956 33.6968 15.148 32.0295 12.4852L28.2126 16.302C29.0123 17.9202 29.4624 19.742 29.4624 21.6691Z" fill="white"/>
<path d="M20.7313 23.7834L14.2322 24.7679L15.2167 18.2688L20.7253 12.7601C19.6707 12.358 18.5266 12.1372 17.3308 12.1372C12.0664 12.1372 7.79889 16.4048 7.79889 21.6692C7.79889 26.9335 12.0664 31.2011 17.3308 31.2011C22.5953 31.2011 26.8628 26.9335 26.8628 21.6692C26.8628 20.4733 26.642 19.3293 26.2399 18.2747L20.7313 23.7834Z" fill="white"/>
<path d="M37.2448 3.59346L35.4065 1.75518L33.5647 3.5971V0H30.9651V6.19672L17.659 19.5028L17.3308 21.6692L19.4972 21.341L32.8033 8.03501H39V5.43538H35.4029L37.2448 3.59346Z" fill="white"/>
</svg>
